<!--
<svg style="position: absolute; width: 0; height: 0; overflow: hidden;" version="1.1" xmlns="http://www.w3.org/2000/svg" xmlns:xlink="http://www.w3.org/1999/xlink">
<defs>
<symbol id="icon-kickstarter" viewBox="0 0 16 16">
<path d="M6.406 5.453L9.34 1.2C9.895.4 10.61 0 11.49 0c.715 0 1.335.254 1.86.762.522.51.784 1.117.784 1.826 0 .523-.138.986-.416 1.386L11.073 7.82l3.235 4.102c.323.408.485.886.485 1.433 0 .724-.254 1.345-.763 1.865-.508.52-1.124.78-1.848.78-.793 0-1.398-.258-1.814-.774l-3.962-4.944v2.726c0 .778-.135 1.383-.405 1.814C5.51 15.607 4.8 16 3.86 16c-.855 0-1.518-.29-1.987-.866-.44-.532-.66-1.237-.66-2.114V2.91c0-.83.224-1.516.67-2.055C2.348.285 2.995 0 3.82 0c.786 0 1.44.285 1.964.855.292.316.477.635.554.96.047.2.07.572.07 1.12v2.518z"/>
</symbol>
</defs>
</svg>
-->

<svg xmlns="http://www.w3.org/2000/svg" preserveAspectRatio="xMidYMid meet" style="position: absolute; overflow: hidden; display: none;">
 <symbol id="functioning-icon" viewBox="0 0 150 150">
      <title>functioning</title>
  <polyline class="a" points="76.6 74 65.6 63 65.6 50.5"/>
  <polyline class="b" points="70.1 96.9 74.6 101.5 77.5 110.8 79.2 116.7 64.1 112 12.5 60.4 23 49.9 31.7 58.5"/>
  <polyline class="a" points="84 103.7 121.3 66.4 130.6 75.7 134.8 71.5 131.9 54.3 113.8 36.3 102.5 47.6 111.9 57 101.5 67.3"/>
  <g>
    <path class="b" d="M51,84.2A25.5,25.5,0,0,1,65.5,37.6a27.6,27.6,0,0,1,5.7.6"/>
    <path class="b" d="M53.3,85.9a28.3,28.3,0,0,0,3.6,1.6l-.7,4.1A28.8,28.8,0,0,0,64.4,93l.7-4.1a28.7,28.7,0,0,0,7.7-1.1l1.9,3.7a29.8,29.8,0,0,0,7.4-3.6l-1.8-3.8a24.3,24.3,0,0,0,5.6-5.5l3.7,2c.8-1.1,1.5-2.3,2.2-3.5a32.9,32.9,0,0,0,1.7-3.9l-3.8-1.9a25.5,25.5,0,0,0,1.4-7.7l4.1-.6A28.1,28.1,0,0,0,94,54.8l-4.1.6a25.5,25.5,0,0,0-3.5-7l3-3a27,27,0,0,0-5.8-5.9l-3,2.9a18.5,18.5,0,0,0-3.3-2.1l-3.6-1.5"/>
  </g>
  <line class="a" x1="123.7" y1="120.7" x2="82.5" y2="120.7"/>
  <path class="b" d="M62.7,45.3l3.1-.2,3,.2"/>
  <path class="b" d="M47.9,66.3a15.5,15.5,0,0,1-.3-3.1,26.4,26.4,0,0,1,.2-2.9"/>
  <path class="b" d="M68.8,81.1a15.3,15.3,0,0,1-3,.3,15.5,15.5,0,0,1-3.1-.3"/>
  <path class="b" d="M83.6,60.2a15.3,15.3,0,0,1,.3,3,30.3,30.3,0,0,1-.2,3.1"/>
</symbol>
 
 <symbol id="whoweare-icon" viewBox="0 0 150 150">
	 <title>who we are</title>
	  <path class="a" d="M44.5,60.8c0,.2-.1.4-.1.6v4.8a6.1,6.1,0,0,0,3.1,5.2l2.1,1.2C49.6,83,57.7,92,68.2,92.3A19.3,19.3,0,0,0,88.2,73l2.3-1.4a5.8,5.8,0,0,0,2.8-5V60.8"/>
	  <polygon class="a" points="61.2 108.7 36.7 84.2 37.2 70 28.3 63.9 20.6 66.1 27.7 73.3 27.7 79.1 23.6 83.2 17.8 83.2 10.6 76 8.4 83.8 14.5 92.7 28.4 91.9 53.2 116.7 61.2 108.7"/>
	  <polygon class="a" points="132.6 86.6 129.2 74.4 113.6 58.8 104.9 67.5 111.8 74.4 78 108.3 87.4 117.7 121.3 83.8 128.3 90.9 132.6 86.6"/>
	  <line class="a" x1="111.5" y1="74" x2="120.1" y2="82.7"/>
	  <path class="a" d="M47.8,48.9A21.2,21.2,0,0,1,69.7,27.8c11.4.4,20.2,10.1,20.2,21.6l5.6,3.1v7.8l-8,1.9H50.3l-8-1.9v-8Z"/>
	  <polyline class="a" points="67.7 68.7 66.7 79.1 73.3 79.1"/>
</symbol>
  <title>products</title>
	
 <symbol id="products-icon" viewBox="0 0 150 150">	
	  <g>
		<polyline class="a" points="51.4 97.4 39 97.4 39 69.1 82.9 69.1 88.6 62.7 70.9 51.4 53.1 62.7 53.1 69.2"/>
		<polyline class="a" points="102.8 77.1 102.8 97.4 87.5 97.4"/>
	  </g>
	  <polyline class="a" points="104.9 62.8 70.9 101.6 51.3 80.7"/>
	  <line class="b" x1="70.9" y1="19.9" x2="70.9" y2="36.9"/>
	  <line class="b" x1="49.8" y1="23.6" x2="55.6" y2="39.5"/>
	  <line class="b" x1="31.3" y1="34.3" x2="42.2" y2="47.3"/>
	  <line class="b" x1="17.6" y1="50.6" x2="32.3" y2="59.1"/>
	  <line class="b" x1="10.3" y1="70.7" x2="27" y2="73.7"/>
	  <line class="b" x1="114.7" y1="73.7" x2="131.4" y2="70.7"/>
	  <line class="b" x1="109.4" y1="59.1" x2="124.1" y2="50.6"/>
	  <line class="b" x1="99.5" y1="47.3" x2="110.4" y2="34.3"/>
	  <line class="b" x1="86.1" y1="39.5" x2="91.9" y2="23.6"/>
</symbol>	
<symbol id="fabrication-icon" viewBox="0 0 150 150">
	<title>fabrication</title>
      <path class="a" d="M61.7,82.9H57.1a28,28,0,0,0-1.4-8.5l4.2-2.1a33.5,33.5,0,0,0-4.2-8.2l-4.2,2.1a27.3,27.3,0,0,0-2.8-3.3,30.4,30.4,0,0,0-3.3-2.8L47.5,56a31.8,31.8,0,0,0-8.2-4.2l-2.1,4.1a30.2,30.2,0,0,0-8.5-1.3V50"/>
      <g>
        <polyline class="a" points="44.8 46.2 60.6 36.9 78.2 48.2 78.2 54.6"/>
        <polyline class="a" points="66.7 82.7 92.4 82.7 92.4 54.5 57 54.5"/>
        <polyline class="a" points="28.7 63.2 28.7 82.7 46.4 82.7"/>
      </g>
    </g>
    <path class="a" d="M57.4,92a31.7,31.7,0,0,0,7.3,5.3l-1.5,4.6a35.4,35.4,0,0,0,9.2,3l1.5-4.7a21.5,21.5,0,0,0,4.5.4,22.8,22.8,0,0,0,4.5-.4l1.5,4.7a34.7,34.7,0,0,0,9.1-3L92,97.3a28.2,28.2,0,0,0,7.4-5.4l3.9,2.9A37.3,37.3,0,0,0,109,87l-4-2.8a28.9,28.9,0,0,0,2.8-8.6h4.9c.2-1.5.3-3.1.4-4.8a38.8,38.8,0,0,0-.4-4.8h-4.9a28.9,28.9,0,0,0-2.8-8.6l4-2.8a31.3,31.3,0,0,0-5.7-7.8l-3.9,2.9"/>
</symbol>	

<symbol id="news-icon" viewBox="0 0 150 150">
  <title>news</title>
  <path class="a" d="M25.7,71.6V77a5.7,5.7,0,0,0,3,5.1l2.1,1.2c0,10.5,8.2,19.5,18.6,19.8A19.4,19.4,0,0,0,69.5,83.8l2.3-1.4a6.1,6.1,0,0,0,2.8-5.1V72.2a1.3,1.3,0,0,0-.1-.6"/>
  <path class="a" d="M29.1,59.6a21.1,21.1,0,0,1,21.8-21c11.4.4,20.3,10.1,20.3,21.5l5.6,3.2v7.8L68.7,73H31.6l-8.1-1.9v-8Z"/>
  <path class="a" d="M106.5,45.9a38.8,38.8,0,0,1,.6,55"/>
  <path class="a" d="M97.2,55.9a27.4,27.4,0,0,1,1,36"/>
  <path class="a" d="M87.7,64.4a18.3,18.3,0,0,1,1.8,18.8"/>
  <polyline class="a" points="56.2 96.2 49.1 92.2 57.7 84.3"/>
</symbol>	

<symbol id="contact-icon" viewBox="0 0 150 150">
  <title>contact</title>
  <polyline class="a" points="90.5 104.4 26.7 104.4 26.7 74.2 61.2 74.2"/>
  <line class="a" x1="89.3" y1="104.4" x2="26.7" y2="74.2"/>
  <line class="a" x1="26.7" y1="104.4" x2="65.6" y2="86"/>
  <path class="a" d="M24.1,60A32.9,32.9,0,0,1,65.6,39"/>
  <path class="a" d="M34.1,64.7A23.1,23.1,0,0,1,63.3,49.8h.1"/>
  <path class="a" d="M42.2,68.7a15.6,15.6,0,0,1,19.7-9.9"/>
  <path class="a" d="M104.4,90.1S101,94,89.4,94c-16.4,0-23-14.4-23-25.9s7.8-28.2,26.7-28.2c21,0,24.6,15.9,24.6,22S116,78.8,107.5,78.8s-7.9-8.7-7.9-8.7c0,8-18.6,17.6-18.6-.5s21.5-12.8,21.5-12.8L99.6,70.6"/>
</symbol>	
</svg>

